<svg width="41" height="46" viewBox="0 0 41 46" fill="none" xmlns="http://www.w3.org/2000/svg">
<path d="M19.5482 0.355865C19.2554 0.595898 19.0357 8.87693 19.0357 18.7182V36.6004L16.4732 34.2601C13.6179 31.6798 8.34643 29.5795 3.29464 28.9794C0.658929 28.6794 0 28.7994 0 29.5195C0 30.1796 1.09821 30.5396 3.51429 30.8397C11.5679 31.7398 17.7911 36.4804 18.8893 42.6011C19.6214 47.0417 21.3786 47.1617 22.0375 42.7811C22.6232 39.1807 24.7464 36.0003 28.0411 33.96C30.6768 32.3398 36.4607 30.5996 39.1696 30.5996C40.4143 30.5996 41 30.2396 41 29.6395C41 28.7994 40.4875 28.6794 37.7054 28.9794C32.6536 29.5795 27.3821 31.6798 24.5268 34.2601L21.9643 36.6004L21.8179 18.4781C21.5982 1.25598 21.3054 -1.08431 19.5482 0.355865Z" fill="#1F110A"/>
</svg>
