<svg width="71" height="96" viewBox="0 0 71 96" fill="none" xmlns="http://www.w3.org/2000/svg">
<path d="M37.0105 95.2573C37.5158 94.7564 37.8947 77.4742 37.8947 56.936L37.8947 19.6166L42.3158 24.5007C47.2421 29.8857 56.3368 34.2689 65.0526 35.5212C69.6 36.1474 70.7368 35.8969 70.7368 34.3941C70.7368 33.0165 68.8421 32.2651 64.6737 31.639C50.7789 29.7605 40.0421 19.8671 38.1473 7.09331C36.8842 -2.17393 33.8526 -2.42439 32.7158 6.71761C31.7052 14.2316 28.0421 20.8689 22.3579 25.1269C17.8105 28.5082 7.83155 32.1399 3.15787 32.1399C1.0105 32.1399 -2.45571e-05 32.8913 -2.45571e-05 34.1436C-2.45571e-05 35.8969 0.884186 36.1474 5.68419 35.5212C14.4 34.2689 23.4947 29.8857 28.421 24.5007L32.8421 19.6166L33.0947 57.437C33.4737 93.3788 33.9789 98.2629 37.0105 95.2573Z" fill="#D96666"/>
</svg>
